<?xml version="1.0" encoding="UTF-8"?>
<svg xmlns="http://www.w3.org/2000/svg" width="46" height="30" version="1.1">
  <defs>
    <style type="text/css">
        .ColorScheme-Text { color:#ffffff; }
        .ColorScheme-Background { color:#202020; stop-color:#202020; }
        .ColorScheme-NegativeText { color:#e81123; }
    </style>
  </defs>
  <g id="active-center">
    <rect x="1" y="1" width="44" height="28" style="opacity:0.003;fill:#000000;fill-opacity:1"/>
    <rect x="12" y="4" width="22" height="22" style="opacity:0.003;fill:#000000;fill-opacity:1"/>
    <g transform="translate(14, 8)">
      <path d="M 10.476562,2 A 0.50005,0.50005 0 0 0 10.083984,2.2226562 L 8.1914062,5.0625 4.3789062,6.015625 A 0.50005,0.50005 0 0 0 4.1464844,6.8535156 L 6.2929688,9 3.1464844,12.146484 c -0.195212,0.195254 -0.195212,0.511778 0,0.707032 0.195254,0.195212 0.5117772,0.195212 0.7070312,0 L 7,9.7070312 9.1464844,11.853516 A 0.50005,0.50005 0 0 0 9.984375,11.621094 L 10.9375,7.8085938 13.777344,5.9160156 a 0.50005,0.50005 0 0 0 0.07617,-0.7695312 l -3,-3 A 0.50005,0.50005 0 0 0 10.476562,2 Z m 0.101563,1.2851562 2.136719,2.1367188 -2.492188,1.6621094 A 0.50005,0.50005 0 0 0 10.015625,7.3789062 L 9.2304688,10.523438 5.4765625,6.7695312 8.6210938,5.984375 A 0.50005,0.50005 0 0 0 8.9160156,5.7773438 Z" style="fill:#ffffff;fill-opacity:1"/>
    </g>
  </g>
  <g id="inactive-center">
    <rect x="1" y="1" width="44" height="28" style="opacity:0.003;fill:#000000;fill-opacity:1"/>
    <rect x="12" y="4" width="22" height="22" style="opacity:0.003;fill:#000000;fill-opacity:1"/>
    <g transform="translate(14, 8)">
      <path d="M 10.476562,2 A 0.50005,0.50005 0 0 0 10.083984,2.2226562 L 8.1914062,5.0625 4.3789062,6.015625 A 0.50005,0.50005 0 0 0 4.1464844,6.8535156 L 6.2929688,9 3.1464844,12.146484 c -0.195212,0.195254 -0.195212,0.511778 0,0.707032 0.195254,0.195212 0.5117772,0.195212 0.7070312,0 L 7,9.7070312 9.1464844,11.853516 A 0.50005,0.50005 0 0 0 9.984375,11.621094 L 10.9375,7.8085938 13.777344,5.9160156 a 0.50005,0.50005 0 0 0 0.07617,-0.7695312 l -3,-3 A 0.50005,0.50005 0 0 0 10.476562,2 Z m 0.101563,1.2851562 2.136719,2.1367188 -2.492188,1.6621094 A 0.50005,0.50005 0 0 0 10.015625,7.3789062 L 9.2304688,10.523438 5.4765625,6.7695312 8.6210938,5.984375 A 0.50005,0.50005 0 0 0 8.9160156,5.7773438 Z" style="fill:#ffffff;fill-opacity:1"/>
    </g>
  </g>
  <g id="hover-center">
    <rect x="1" y="1" width="44" height="28" style="opacity:0.1;fill:#ffffff;fill-opacity:1"/>
    <rect x="12" y="4" width="22" height="22" style="opacity:0.003;fill:#000000;fill-opacity:1"/>
    <g transform="translate(14, 8)">
      <path d="M 10.476562,2 A 0.50005,0.50005 0 0 0 10.083984,2.2226562 L 8.1914062,5.0625 4.3789062,6.015625 A 0.50005,0.50005 0 0 0 4.1464844,6.8535156 L 6.2929688,9 3.1464844,12.146484 c -0.195212,0.195254 -0.195212,0.511778 0,0.707032 0.195254,0.195212 0.5117772,0.195212 0.7070312,0 L 7,9.7070312 9.1464844,11.853516 A 0.50005,0.50005 0 0 0 9.984375,11.621094 L 10.9375,7.8085938 13.777344,5.9160156 a 0.50005,0.50005 0 0 0 0.07617,-0.7695312 l -3,-3 A 0.50005,0.50005 0 0 0 10.476562,2 Z m 0.101563,1.2851562 2.136719,2.1367188 -2.492188,1.6621094 A 0.50005,0.50005 0 0 0 10.015625,7.3789062 L 9.2304688,10.523438 5.4765625,6.7695312 8.6210938,5.984375 A 0.50005,0.50005 0 0 0 8.9160156,5.7773438 Z" style="fill:#ffffff;fill-opacity:1"/>
    </g>
  </g>
  <g id="hover-inactive-center">
    <rect x="1" y="1" width="44" height="28" style="opacity:0.1;fill:#ffffff;fill-opacity:1"/>
    <rect x="12" y="4" width="22" height="22" style="opacity:0.003;fill:#000000;fill-opacity:1"/>
    <g transform="translate(14, 8)">
      <path d="M 10.476562,2 A 0.50005,0.50005 0 0 0 10.083984,2.2226562 L 8.1914062,5.0625 4.3789062,6.015625 A 0.50005,0.50005 0 0 0 4.1464844,6.8535156 L 6.2929688,9 3.1464844,12.146484 c -0.195212,0.195254 -0.195212,0.511778 0,0.707032 0.195254,0.195212 0.5117772,0.195212 0.7070312,0 L 7,9.7070312 9.1464844,11.853516 A 0.50005,0.50005 0 0 0 9.984375,11.621094 L 10.9375,7.8085938 13.777344,5.9160156 a 0.50005,0.50005 0 0 0 0.07617,-0.7695312 l -3,-3 A 0.50005,0.50005 0 0 0 10.476562,2 Z m 0.101563,1.2851562 2.136719,2.1367188 -2.492188,1.6621094 A 0.50005,0.50005 0 0 0 10.015625,7.3789062 L 9.2304688,10.523438 5.4765625,6.7695312 8.6210938,5.984375 A 0.50005,0.50005 0 0 0 8.9160156,5.7773438 Z" style="fill:#ffffff;fill-opacity:1"/>
    </g>
  </g>
  <g id="pressed-center">
    <rect x="1" y="1" width="44" height="28" style="opacity:0.25;fill:#ffffff;fill-opacity:1"/>
    <rect x="12" y="4" width="22" height="22" style="opacity:0.003;fill:#000000;fill-opacity:1"/>
    <g transform="translate(14, 8)">
      <path d="M 10.476562,2 A 0.50005,0.50005 0 0 0 10.083984,2.2226562 L 8.1914062,5.0625 4.3789062,6.015625 A 0.50005,0.50005 0 0 0 4.1464844,6.8535156 L 6.2929688,9 3.1464844,12.146484 c -0.195212,0.195254 -0.195212,0.511778 0,0.707032 0.195254,0.195212 0.5117772,0.195212 0.7070312,0 L 7,9.7070312 9.1464844,11.853516 A 0.50005,0.50005 0 0 0 9.984375,11.621094 L 10.9375,7.8085938 13.777344,5.9160156 a 0.50005,0.50005 0 0 0 0.07617,-0.7695312 l -3,-3 A 0.50005,0.50005 0 0 0 10.476562,2 Z m 0.101563,1.2851562 2.136719,2.1367188 -2.492188,1.6621094 A 0.50005,0.50005 0 0 0 10.015625,7.3789062 L 9.2304688,10.523438 5.4765625,6.7695312 8.6210938,5.984375 A 0.50005,0.50005 0 0 0 8.9160156,5.7773438 Z" style="fill:#ffffff;fill-opacity:1"/>
    </g>
  </g>
  <g id="pressed-inactive-center">
    <rect x="1" y="1" width="44" height="28" style="opacity:0.25;fill:#ffffff;fill-opacity:1"/>
    <rect x="12" y="4" width="22" height="22" style="opacity:0.003;fill:#000000;fill-opacity:1"/>
    <g transform="translate(14, 8)">
      <path d="M 10.476562,2 A 0.50005,0.50005 0 0 0 10.083984,2.2226562 L 8.1914062,5.0625 4.3789062,6.015625 A 0.50005,0.50005 0 0 0 4.1464844,6.8535156 L 6.2929688,9 3.1464844,12.146484 c -0.195212,0.195254 -0.195212,0.511778 0,0.707032 0.195254,0.195212 0.5117772,0.195212 0.7070312,0 L 7,9.7070312 9.1464844,11.853516 A 0.50005,0.50005 0 0 0 9.984375,11.621094 L 10.9375,7.8085938 13.777344,5.9160156 a 0.50005,0.50005 0 0 0 0.07617,-0.7695312 l -3,-3 A 0.50005,0.50005 0 0 0 10.476562,2 Z m 0.101563,1.2851562 2.136719,2.1367188 -2.492188,1.6621094 A 0.50005,0.50005 0 0 0 10.015625,7.3789062 L 9.2304688,10.523438 5.4765625,6.7695312 8.6210938,5.984375 A 0.50005,0.50005 0 0 0 8.9160156,5.7773438 Z" style="fill:#ffffff;fill-opacity:1"/>
    </g>
  </g>
  <g id="deactivated-center">
    <rect x="1" y="1" width="44" height="28" style="opacity:0.003;fill:#808080;fill-opacity:1"/>
    <rect x="12" y="4" width="22" height="22" style="opacity:0.003;fill:#000000;fill-opacity:1"/>
    <g transform="translate(14, 8)">
      <path d="M 10.476562,2 A 0.50005,0.50005 0 0 0 10.083984,2.2226562 L 8.1914062,5.0625 4.3789062,6.015625 A 0.50005,0.50005 0 0 0 4.1464844,6.8535156 L 6.2929688,9 3.1464844,12.146484 c -0.195212,0.195254 -0.195212,0.511778 0,0.707032 0.195254,0.195212 0.5117772,0.195212 0.7070312,0 L 7,9.7070312 9.1464844,11.853516 A 0.50005,0.50005 0 0 0 9.984375,11.621094 L 10.9375,7.8085938 13.777344,5.9160156 a 0.50005,0.50005 0 0 0 0.07617,-0.7695312 l -3,-3 A 0.50005,0.50005 0 0 0 10.476562,2 Z m 0.101563,1.2851562 2.136719,2.1367188 -2.492188,1.6621094 A 0.50005,0.50005 0 0 0 10.015625,7.3789062 L 9.2304688,10.523438 5.4765625,6.7695312 8.6210938,5.984375 A 0.50005,0.50005 0 0 0 8.9160156,5.7773438 Z" style="opacity:0.1;fill:#ffffff;fill-opacity:1"/>
    </g>
  </g>
  <g id="deactivated-inactive-center">
    <rect x="1" y="1" width="44" height="28" style="opacity:0.003;fill:#808080;fill-opacity:1"/>
    <rect x="12" y="4" width="22" height="22" style="opacity:0.003;fill:#000000;fill-opacity:1"/>
    <g transform="translate(14, 8)">
      <path d="M 10.476562,2 A 0.50005,0.50005 0 0 0 10.083984,2.2226562 L 8.1914062,5.0625 4.3789062,6.015625 A 0.50005,0.50005 0 0 0 4.1464844,6.8535156 L 6.2929688,9 3.1464844,12.146484 c -0.195212,0.195254 -0.195212,0.511778 0,0.707032 0.195254,0.195212 0.5117772,0.195212 0.7070312,0 L 7,9.7070312 9.1464844,11.853516 A 0.50005,0.50005 0 0 0 9.984375,11.621094 L 10.9375,7.8085938 13.777344,5.9160156 a 0.50005,0.50005 0 0 0 0.07617,-0.7695312 l -3,-3 A 0.50005,0.50005 0 0 0 10.476562,2 Z m 0.101563,1.2851562 2.136719,2.1367188 -2.492188,1.6621094 A 0.50005,0.50005 0 0 0 10.015625,7.3789062 L 9.2304688,10.523438 5.4765625,6.7695312 8.6210938,5.984375 A 0.50005,0.50005 0 0 0 8.9160156,5.7773438 Z" style="opacity:0.1;fill:#ffffff;fill-opacity:1"/>
    </g>
  </g>
</svg>
