<?xml version="1.0" encoding="UTF-8"?>
<svg xmlns="http://www.w3.org/2000/svg" width="46" height="30" version="1.1">
  <defs>
    <style type="text/css">
        .ColorScheme-Text { color:#ffffff; }
        .ColorScheme-Background { color:#202020; stop-color:#202020; }
        .ColorScheme-NegativeText { color:#e81123; }
    </style>
  </defs>
  <g id="active-center">
    <rect x="1" y="1" width="44" height="28" style="opacity:0.003;fill:#000000;fill-opacity:1"/>
    <rect x="12" y="4" width="22" height="22" style="opacity:0.003;fill:#000000;fill-opacity:1"/>
    <g transform="translate(14, 5)">
      <path d="M 4.9 6.5 L 5.8 2.9 L 9 4 L 12.2 2.9 L 13.1 6.5 Z" style="fill:#ffffff;fill-opacity:1;stroke:none"/>
      <path d="M 2.8 8.5 L 15.2 8.5" style="fill:none;stroke:#ffffff;stroke-width:1.3;stroke-linecap:round"/>
      <ellipse cx="5" cy="12.8" rx="2.3" ry="2.3" style="fill:none;stroke:#ffffff;stroke-width:1.3"/>
      <ellipse cx="13" cy="12.8" rx="2.3" ry="2.3" style="fill:none;stroke:#ffffff;stroke-width:1.3"/>
      <path d="M 7.5 12.8 L 10.5 12.8" style="fill:none;stroke:#ffffff;stroke-width:1.3;stroke-linecap:round"/>
    </g>
  </g>
  <g id="inactive-center">
    <rect x="1" y="1" width="44" height="28" style="opacity:0.003;fill:#000000;fill-opacity:1"/>
    <rect x="12" y="4" width="22" height="22" style="opacity:0.003;fill:#000000;fill-opacity:1"/>
    <g transform="translate(14, 5)">
      <path d="M 4.9 6.5 L 5.8 2.9 L 9 4 L 12.2 2.9 L 13.1 6.5 Z" style="fill:#ffffff;fill-opacity:1;stroke:none"/>
      <path d="M 2.8 8.5 L 15.2 8.5" style="fill:none;stroke:#ffffff;stroke-width:1.3;stroke-linecap:round"/>
      <ellipse cx="5" cy="12.8" rx="2.3" ry="2.3" style="fill:none;stroke:#ffffff;stroke-width:1.3"/>
      <ellipse cx="13" cy="12.8" rx="2.3" ry="2.3" style="fill:none;stroke:#ffffff;stroke-width:1.3"/>
      <path d="M 7.5 12.8 L 10.5 12.8" style="fill:none;stroke:#ffffff;stroke-width:1.3;stroke-linecap:round"/>
    </g>
  </g>
  <g id="hover-center">
    <rect x="1" y="1" width="44" height="28" style="opacity:0.1;fill:#ffffff;fill-opacity:1"/>
    <rect x="12" y="4" width="22" height="22" style="opacity:0.003;fill:#000000;fill-opacity:1"/>
    <g transform="translate(14, 5)">
      <path d="M 4.9 6.5 L 5.8 2.9 L 9 4 L 12.2 2.9 L 13.1 6.5 Z" style="fill:#ffffff;fill-opacity:1;stroke:none"/>
      <path d="M 2.8 8.5 L 15.2 8.5" style="fill:none;stroke:#ffffff;stroke-width:1.3;stroke-linecap:round"/>
      <ellipse cx="5" cy="12.8" rx="2.3" ry="2.3" style="fill:none;stroke:#ffffff;stroke-width:1.3"/>
      <ellipse cx="13" cy="12.8" rx="2.3" ry="2.3" style="fill:none;stroke:#ffffff;stroke-width:1.3"/>
      <path d="M 7.5 12.8 L 10.5 12.8" style="fill:none;stroke:#ffffff;stroke-width:1.3;stroke-linecap:round"/>
    </g>
  </g>
  <g id="hover-inactive-center">
    <rect x="1" y="1" width="44" height="28" style="opacity:0.1;fill:#ffffff;fill-opacity:1"/>
    <rect x="12" y="4" width="22" height="22" style="opacity:0.003;fill:#000000;fill-opacity:1"/>
    <g transform="translate(14, 5)">
      <path d="M 4.9 6.5 L 5.8 2.9 L 9 4 L 12.2 2.9 L 13.1 6.5 Z" style="fill:#ffffff;fill-opacity:1;stroke:none"/>
      <path d="M 2.8 8.5 L 15.2 8.5" style="fill:none;stroke:#ffffff;stroke-width:1.3;stroke-linecap:round"/>
      <ellipse cx="5" cy="12.8" rx="2.3" ry="2.3" style="fill:none;stroke:#ffffff;stroke-width:1.3"/>
      <ellipse cx="13" cy="12.8" rx="2.3" ry="2.3" style="fill:none;stroke:#ffffff;stroke-width:1.3"/>
      <path d="M 7.5 12.8 L 10.5 12.8" style="fill:none;stroke:#ffffff;stroke-width:1.3;stroke-linecap:round"/>
    </g>
  </g>
  <g id="pressed-center">
    <rect x="1" y="1" width="44" height="28" style="opacity:0.25;fill:#ffffff;fill-opacity:1"/>
    <rect x="12" y="4" width="22" height="22" style="opacity:0.003;fill:#000000;fill-opacity:1"/>
    <g transform="translate(14, 5)">
      <path d="M 4.9 6.5 L 5.8 2.9 L 9 4 L 12.2 2.9 L 13.1 6.5 Z" style="fill:#ffffff;fill-opacity:1;stroke:none"/>
      <path d="M 2.8 8.5 L 15.2 8.5" style="fill:none;stroke:#ffffff;stroke-width:1.3;stroke-linecap:round"/>
      <ellipse cx="5" cy="12.8" rx="2.3" ry="2.3" style="fill:none;stroke:#ffffff;stroke-width:1.3"/>
      <ellipse cx="13" cy="12.8" rx="2.3" ry="2.3" style="fill:none;stroke:#ffffff;stroke-width:1.3"/>
      <path d="M 7.5 12.8 L 10.5 12.8" style="fill:none;stroke:#ffffff;stroke-width:1.3;stroke-linecap:round"/>
    </g>
  </g>
  <g id="pressed-inactive-center">
    <rect x="1" y="1" width="44" height="28" style="opacity:0.25;fill:#ffffff;fill-opacity:1"/>
    <rect x="12" y="4" width="22" height="22" style="opacity:0.003;fill:#000000;fill-opacity:1"/>
    <g transform="translate(14, 5)">
      <path d="M 4.9 6.5 L 5.8 2.9 L 9 4 L 12.2 2.9 L 13.1 6.5 Z" style="fill:#ffffff;fill-opacity:1;stroke:none"/>
      <path d="M 2.8 8.5 L 15.2 8.5" style="fill:none;stroke:#ffffff;stroke-width:1.3;stroke-linecap:round"/>
      <ellipse cx="5" cy="12.8" rx="2.3" ry="2.3" style="fill:none;stroke:#ffffff;stroke-width:1.3"/>
      <ellipse cx="13" cy="12.8" rx="2.3" ry="2.3" style="fill:none;stroke:#ffffff;stroke-width:1.3"/>
      <path d="M 7.5 12.8 L 10.5 12.8" style="fill:none;stroke:#ffffff;stroke-width:1.3;stroke-linecap:round"/>
    </g>
  </g>
  <g id="deactivated-center">
    <rect x="1" y="1" width="44" height="28" style="opacity:0.003;fill:#808080;fill-opacity:1"/>
    <rect x="12" y="4" width="22" height="22" style="opacity:0.003;fill:#000000;fill-opacity:1"/>
    <g transform="translate(14, 5)" opacity="0.1">
      <path d="M 4.9 6.5 L 5.8 2.9 L 9 4 L 12.2 2.9 L 13.1 6.5 Z" style="fill:#ffffff;fill-opacity:1;stroke:none"/>
      <path d="M 2.8 8.5 L 15.2 8.5" style="fill:none;stroke:#ffffff;stroke-width:1.3;stroke-linecap:round"/>
      <ellipse cx="5" cy="12.8" rx="2.3" ry="2.3" style="fill:none;stroke:#ffffff;stroke-width:1.3"/>
      <ellipse cx="13" cy="12.8" rx="2.3" ry="2.3" style="fill:none;stroke:#ffffff;stroke-width:1.3"/>
      <path d="M 7.5 12.8 L 10.5 12.8" style="fill:none;stroke:#ffffff;stroke-width:1.3;stroke-linecap:round"/>
    </g>
  </g>
  <g id="deactivated-inactive-center">
    <rect x="1" y="1" width="44" height="28" style="opacity:0.003;fill:#808080;fill-opacity:1"/>
    <rect x="12" y="4" width="22" height="22" style="opacity:0.003;fill:#000000;fill-opacity:1"/>
    <g transform="translate(14, 5)" opacity="0.1">
      <path d="M 4.9 6.5 L 5.8 2.9 L 9 4 L 12.2 2.9 L 13.1 6.5 Z" style="fill:#ffffff;fill-opacity:1;stroke:none"/>
      <path d="M 2.8 8.5 L 15.2 8.5" style="fill:none;stroke:#ffffff;stroke-width:1.3;stroke-linecap:round"/>
      <ellipse cx="5" cy="12.8" rx="2.3" ry="2.3" style="fill:none;stroke:#ffffff;stroke-width:1.3"/>
      <ellipse cx="13" cy="12.8" rx="2.3" ry="2.3" style="fill:none;stroke:#ffffff;stroke-width:1.3"/>
      <path d="M 7.5 12.8 L 10.5 12.8" style="fill:none;stroke:#ffffff;stroke-width:1.3;stroke-linecap:round"/>
    </g>
  </g>
</svg>
