<?xml version="1.0" encoding="UTF-8"?>
<svg xmlns="http://www.w3.org/2000/svg"
     width="46" height="30" version="1.1">
  <defs>
    <style type="text/css">
        .ColorScheme-Text { color:#ffffff; }
        .ColorScheme-Background { color:#202020; stop-color:#202020; }
        .ColorScheme-NegativeText { color:#e81123; }
    </style>
  </defs>
  <g id="active-center">
    <rect x="1" y="1" width="44" height="28" style="opacity:0.003;fill:#000000;fill-opacity:1;stroke-width:0.348723"/>
    <rect x="12" y="4" width="22" height="22" style="opacity:0.003;fill:#000000;fill-opacity:1;stroke-width:0.220007"/>
    <path d="M 22 10 C 21.3 10 20.6 10.4 20.3 11 L 25 11 C 26.1 11 27 11.9 27 13 L 27 17.7 C 27.6 17.4 28 16.7 28 16 L 28 13 C 28 11.3 26.7 10 25 10 L 22 10 z M 20 12 C 18.9 12 18 12.9 18 14 L 18 18 C 18 19.1 18.9 20 20 20 L 24 20 C 25.1 20 26 19.1 26 18 L 26 14 C 26 12.9 25.1 12 24 12 L 20 12 z M 20 13 L 24 13 C 24.6 13 25 13.4 25 14 L 25 18 C 25 18.6 24.6 19 24 19 L 20 19 C 19.4 19 19 18.6 19 18 L 19 14 C 19 13.4 19.4 13 20 13 z" style="fill:#ffffff;fill-opacity:1;shape-rendering:crispEdges"/>
  </g>
  <g id="inactive-center">
    <rect x="1" y="1" width="44" height="28" style="opacity:0.003;fill:#000000;fill-opacity:1;stroke-width:0.348723"/>
    <rect x="12" y="4" width="22" height="22" style="opacity:0.003;fill:#000000;fill-opacity:1;stroke-width:0.220007"/>
    <path d="M 22 10 C 21.3 10 20.6 10.4 20.3 11 L 25 11 C 26.1 11 27 11.9 27 13 L 27 17.7 C 27.6 17.4 28 16.7 28 16 L 28 13 C 28 11.3 26.7 10 25 10 L 22 10 z M 20 12 C 18.9 12 18 12.9 18 14 L 18 18 C 18 19.1 18.9 20 20 20 L 24 20 C 25.1 20 26 19.1 26 18 L 26 14 C 26 12.9 25.1 12 24 12 L 20 12 z M 20 13 L 24 13 C 24.6 13 25 13.4 25 14 L 25 18 C 25 18.6 24.6 19 24 19 L 20 19 C 19.4 19 19 18.6 19 18 L 19 14 C 19 13.4 19.4 13 20 13 z" style="fill:#ffffff;fill-opacity:1;shape-rendering:crispEdges"/>
  </g>
  <g id="hover-center">
    <rect x="1" y="1" width="44" height="28" style="opacity:0.1;fill:#ffffff;fill-opacity:1"/>
    <rect x="12" y="4" width="22" height="22" style="opacity:0.003;fill:#000000;fill-opacity:1;stroke-width:0.220007"/>
    <path d="M 22 10 C 21.3 10 20.6 10.4 20.3 11 L 25 11 C 26.1 11 27 11.9 27 13 L 27 17.7 C 27.6 17.4 28 16.7 28 16 L 28 13 C 28 11.3 26.7 10 25 10 z M 20 12 C 18.9 12 18 12.9 18 14 L 18 18 C 18 19.1 18.9 20 20 20 L 24 20 C 25.1 20 26 19.1 26 18 L 26 14 C 26 12.9 25.1 12 24 12 z M 20 13 L 24 13 C 24.6 13 25 13.4 25 14 L 25 18 C 25 18.6 24.6 19 24 19 L 20 19 C 19.4 19 19 18.6 19 18 L 19 14 C 19 13.4 19.4 13 20 13 z" style="fill:#ffffff;fill-opacity:1;shape-rendering:crispEdges"/>
  </g>
  <g id="hover-inactive-center">
    <rect x="1" y="1" width="44" height="28" style="opacity:0.1;fill:#ffffff;fill-opacity:1"/>
    <rect x="12" y="4" width="22" height="22" style="opacity:0.003;fill:#000000;fill-opacity:1;stroke-width:0.220007"/>
    <path d="M 22 10 C 21.3 10 20.6 10.4 20.3 11 L 25 11 C 26.1 11 27 11.9 27 13 L 27 17.7 C 27.6 17.4 28 16.7 28 16 L 28 13 C 28 11.3 26.7 10 25 10 z M 20 12 C 18.9 12 18 12.9 18 14 L 18 18 C 18 19.1 18.9 20 20 20 L 24 20 C 25.1 20 26 19.1 26 18 L 26 14 C 26 12.9 25.1 12 24 12 z M 20 13 L 24 13 C 24.6 13 25 13.4 25 14 L 25 18 C 25 18.6 24.6 19 24 19 L 20 19 C 19.4 19 19 18.6 19 18 L 19 14 C 19 13.4 19.4 13 20 13 z" style="fill:#ffffff;fill-opacity:1;shape-rendering:crispEdges"/>
  </g>
  <g id="pressed-center">
    <rect x="1" y="1" width="44" height="28" style="opacity:0.25;fill:#ffffff;fill-opacity:1"/>
    <rect x="12" y="4" width="22" height="22" style="opacity:0.003;fill:#000000;fill-opacity:1;stroke-width:0.220007"/>
    <path d="M 22 10 C 21.3 10 20.6 10.4 20.3 11 L 25 11 C 26.1 11 27 11.9 27 13 L 27 17.7 C 27.6 17.4 28 16.7 28 16 L 28 13 C 28 11.3 26.7 10 25 10 z M 20 12 C 18.9 12 18 12.9 18 14 L 18 18 C 18 19.1 18.9 20 20 20 L 24 20 C 25.1 20 26 19.1 26 18 L 26 14 C 26 12.9 25.1 12 24 12 z M 20 13 L 24 13 C 24.6 13 25 13.4 25 14 L 25 18 C 25 18.6 24.6 19 24 19 L 20 19 C 19.4 19 19 18.6 19 18 L 19 14 C 19 13.4 19.4 13 20 13 z" style="fill:#ffffff;fill-opacity:1;shape-rendering:crispEdges"/>
  </g>
  <g id="pressed-inactive-center">
    <rect x="1" y="1" width="44" height="28" style="opacity:0.25;fill:#ffffff;fill-opacity:1"/>
    <rect x="12" y="4" width="22" height="22" style="opacity:0.003;fill:#000000;fill-opacity:1;stroke-width:0.220007"/>
    <path d="M 22 10 C 21.3 10 20.6 10.4 20.3 11 L 25 11 C 26.1 11 27 11.9 27 13 L 27 17.7 C 27.6 17.4 28 16.7 28 16 L 28 13 C 28 11.3 26.7 10 25 10 z M 20 12 C 18.9 12 18 12.9 18 14 L 18 18 C 18 19.1 18.9 20 20 20 L 24 20 C 25.1 20 26 19.1 26 18 L 26 14 C 26 12.9 25.1 12 24 12 z M 20 13 L 24 13 C 24.6 13 25 13.4 25 14 L 25 18 C 25 18.6 24.6 19 24 19 L 20 19 C 19.4 19 19 18.6 19 18 L 19 14 C 19 13.4 19.4 13 20 13 z" style="fill:#ffffff;fill-opacity:1;shape-rendering:crispEdges"/>
  </g>
  <g id="deactivated-center">
    <rect x="1" y="1" width="44" height="28" style="opacity:0.003;fill:#808080;fill-opacity:1;stroke-width:0.35101"/>
    <rect x="12" y="4" width="22" height="22" style="opacity:0.003;fill:#000000;fill-opacity:1;stroke-width:0.220007"/>
    <path d="M 22 10 C 21.3 10 20.6 10.4 20.3 11 L 25 11 C 26.1 11 27 11.9 27 13 L 27 17.7 C 27.6 17.4 28 16.7 28 16 L 28 13 C 28 11.3 26.7 10 25 10 z M 20 12 C 18.9 12 18 12.9 18 14 L 18 18 C 18 19.1 18.9 20 20 20 L 24 20 C 25.1 20 26 19.1 26 18 L 26 14 C 26 12.9 25.1 12 24 12 z M 20 13 L 24 13 C 24.6 13 25 13.4 25 14 L 25 18 C 25 18.6 24.6 19 24 19 L 20 19 C 19.4 19 19 18.6 19 18 L 19 14 C 19 13.4 19.4 13 20 13 z" style="fill:#ffffff;opacity:0.1;fill-opacity:1;shape-rendering:crispEdges"/>
  </g>
  <g id="deactivated-inactive-center">
    <rect x="1" y="1" width="44" height="28" style="opacity:0.003;fill:#808080;fill-opacity:1;stroke-width:0.35101"/>
    <rect x="12" y="4" width="22" height="22" style="opacity:0.003;fill:#000000;fill-opacity:1;stroke-width:0.220007"/>
    <path d="M 22 10 C 21.3 10 20.6 10.4 20.3 11 L 25 11 C 26.1 11 27 11.9 27 13 L 27 17.7 C 27.6 17.4 28 16.7 28 16 L 28 13 C 28 11.3 26.7 10 25 10 z M 20 12 C 18.9 12 18 12.9 18 14 L 18 18 C 18 19.1 18.9 20 20 20 L 24 20 C 25.1 20 26 19.1 26 18 L 26 14 C 26 12.9 25.1 12 24 12 z M 20 13 L 24 13 C 24.6 13 25 13.4 25 14 L 25 18 C 25 18.6 24.6 19 24 19 L 20 19 C 19.4 19 19 18.6 19 18 L 19 14 C 19 13.4 19.4 13 20 13 z" style="fill:#ffffff;opacity:0.1;fill-opacity:1;shape-rendering:crispEdges"/>
  </g>
</svg>
