<?xml version="1.0" encoding="UTF-8" standalone="no"?>
<svg
   width="22"
   height="22"
   version="1.1"
   id="svg7"
   sodipodi:docname="redshift.svgz"
   inkscape:version="1.4 (e7c3feb100, 2024-10-09)"
   xmlns:inkscape="http://www.inkscape.org/namespaces/inkscape"
   xmlns:sodipodi="http://sodipodi.sourceforge.net/DTD/sodipodi-0.dtd"
   xmlns="http://www.w3.org/2000/svg"
   xmlns:svg="http://www.w3.org/2000/svg">
  <sodipodi:namedview
     id="namedview9"
     pagecolor="#e6e6e6"
     bordercolor="#666666"
     borderopacity="1.0"
     inkscape:pageshadow="2"
     inkscape:pageopacity="0"
     inkscape:pagecheckerboard="0"
     showgrid="true"
     inkscape:snap-smooth-nodes="true"
     inkscape:zoom="4.0000002"
     inkscape:cx="-30.874999"
     inkscape:cy="24.749999"
     inkscape:window-width="1920"
     inkscape:window-height="950"
     inkscape:window-x="0"
     inkscape:window-y="34"
     inkscape:window-maximized="1"
     inkscape:current-layer="svg7"
     inkscape:showpageshadow="2"
     inkscape:deskcolor="#d1d1d1">
    <inkscape:grid
       type="xygrid"
       id="grid826"
       originx="0"
       originy="0"
       spacingy="1"
       spacingx="1"
       units="px" />
  </sodipodi:namedview>
  <defs
     id="defs3">
    <style
       id="current-color-scheme"
       type="text/css">
   .ColorScheme-Text { color:#444444; } .ColorScheme-Highlight { color:#4285f4; } .ColorScheme-NeutralText { color:#ff9800; } .ColorScheme-PositiveText { color:#4caf50; } .ColorScheme-NegativeText { color:#f44336; }
  </style>
  </defs>
  <g
     id="22-22-redshift-status-on">
    <rect
       id="rect5142"
       width="22"
       height="22"
       x="0"
       y="0"
       rx="0"
       ry="0"
       style="fill:none" />
    <g
       id="g3348"
       transform="translate(21.058594)">
      <path
         id="path3274"
         class="ColorScheme-Text"
         d="m -10.058594,3 c -3.31333,0 -5.997396,2.6951858 -5.997396,6.0201822 0,1.9599998 0.922853,3.6862128 2.381185,4.7828778 0.664999,0.501667 1.223633,1.154727 1.223633,2.053059 L -12.391924,17 h 4.6666663 l 0.070638,-1.143881 c 0.046667,-0.898332 0.5472402,-1.551393 1.2122391,-2.053059 1.4583322,-1.096666 2.3811854,-2.822878 2.3811854,-4.7828778 C -4.0611974,5.6951858 -6.74526,3 -10.05859,3 Z m 0,1.1666667 c 2.6806992,0 4.8307295,2.1562018 4.8307295,4.8535155 0,1.5942568 -0.7394322,2.9658748 -1.9163411,3.8509138 -0.8259172,0.623058 -1.6028659,1.61884 -1.6748049,2.914386 v 0.0069 l -0.00228,0.0046 -0.00228,0.03642 h -2.4586585 l -0.0023,-0.03646 v 0.05925 c -3e-6,-1.383178 -0.886093,-2.37972 -1.688477,-2.985026 -1.176859,-0.885086 -1.916339,-2.2567 -1.916339,-3.850956 5.5e-5,-2.6973126 2.150085,-4.8535143 4.830784,-4.8535143 z"
         style="fill:#fbfbfb;fill-opacity:1;stroke:none;stroke-width:0.583333;stroke-linecap:round;stroke-linejoin:round;stroke-dasharray:none;stroke-opacity:1" />
      <rect
         style="font-variation-settings:'wght' 700;opacity:0.45;fill:#fbfbfb;fill-opacity:1;fill-rule:evenodd;stroke:none;paint-order:stroke fill markers"
         id="rect3341"
         width="4"
         height="1"
         x="-12.058594"
         y="19"
         ry="0.5" />
    </g>
  </g>
  <g
     id="22-22-redshift-status-off"
     transform="translate(0,32)"
     style="opacity:0.35">
    <rect
       id="rect4116"
       width="22"
       height="22"
       x="0"
       y="0"
       rx="0"
       ry="0"
       style="fill:none" />
    <g
       id="g4124"
       transform="translate(21.058594)">
      <path
         id="path4118"
         class="ColorScheme-Text"
         d="m -10.058594,3 c -3.313329,0 -5.997396,2.6951859 -5.997396,6.0201825 0,1.9599975 0.922854,3.6862125 2.381185,4.7828775 0.664999,0.501665 1.223633,1.154728 1.223633,2.053059 L -12.391934,17 h 4.6666675 l 0.070639,-1.143881 c 0.046666,-0.898331 0.5472403,-1.551394 1.2122391,-2.053059 1.4583323,-1.096665 2.3811855,-2.822879 2.3811855,-4.7828775 C -4.0612042,5.6951859 -6.7452668,3 -10.058597,3 Z m 0,1.1666667 c 2.680699,0 4.8307293,2.1562018 4.8307293,4.8535158 0,1.5942565 -0.7394322,2.9658735 -1.9163411,3.8509115 -0.8259171,0.623058 -1.6028659,1.618842 -1.6748049,2.914388 v 0.0069 l -0.00227,0.0045 -0.00228,0.03642 h -2.4586583 l -0.0024,-0.03646 v 0.05924 c -4e-6,-1.383178 -0.886094,-2.37972 -1.688477,-2.985026 -1.17686,-0.885041 -1.916341,-2.256655 -1.916341,-3.8509115 5.5e-5,-2.6973129 2.150084,-4.8535146 4.830785,-4.8535146 z"
         style="opacity:1;fill:#fbfffb;fill-opacity:1;stroke:none;stroke-width:0.5;stroke-linecap:round;stroke-linejoin:round;stroke-dasharray:none;stroke-opacity:1" />
      <rect
         style="font-variation-settings:'wght' 700;opacity:1;fill:#fbfbfb;fill-opacity:1;fill-rule:evenodd;stroke:none;paint-order:stroke fill markers"
         id="rect4120"
         width="4"
         height="1"
         x="-12.058594"
         y="19"
         ry="0.5" />
    </g>
  </g>
  <g
     id="redshift-status-on">
    <rect
       style="opacity:0.45;fill:none;stroke-width:0.290909;stroke-linecap:round;stroke-linejoin:round;paint-order:stroke fill markers;stop-color:#000000"
       id="rect850"
       width="32"
       height="32"
       x="23"
       y="-5"
       rx="0"
       ry="0" />
    <g
       id="g5696"
       transform="translate(0,37)">
      <path
         id="path404"
         class="ColorScheme-Text"
         d="m 39,-37 c -3.89583,0 -7,3.384303 -7,7.449219 0,2.39275 1.05571,4.536795 2.753906,5.904297 0.337692,0.272804 0.676591,0.551174 0.894532,0.808593 0.218203,0.25773 0.292968,0.441968 0.292968,0.613282 v 0.02344 L 36.046875,-20 h 5.898437 l 0.123047,-2.171875 v -0.0039 c 0.01981,-0.408279 0.524354,-0.942737 1.177735,-1.470703 h 0.002 C 44.945612,-25.014034 46,-27.158574 46,-29.550781 46,-33.615697 42.89583,-37 39,-37 Z m 0,1 c 3.155196,0 6.003906,2.756262 6.003906,6.287109 0,2.085276 -0.908673,3.883934 -2.316406,5.017579 h -0.002 c -1.404825,1.239505 -1.668207,1.627896 -1.758007,3.371093 v 0.0039 L 40.908008,-21 h -3.754661 l -0.01367,-0.316406 c -0.0037,-0.886673 -0.03468,-1.614852 -0.481472,-2.142578 -0.456469,-0.539158 -0.964177,-0.931279 -1.341797,-1.236328 h -0.0039 c -1.407734,-1.133649 -2.316406,-2.932303 -2.316406,-5.017579 C 32.996094,-33.243738 35.844804,-36 39,-36 Z"
         sodipodi:nodetypes="sscsscccccccsssscccccccsccss"
         style="fill:#fbfbfb;fill-opacity:1;stroke:none;stroke-width:0.5;stroke-linecap:round;stroke-linejoin:round;stroke-dasharray:none;stroke-opacity:1" />
      <path
         id="path5671"
         style="font-variation-settings:'wght' 700;opacity:0.35;fill:#fbfbfb;fill-opacity:1;fill-rule:evenodd;stroke:none;paint-order:stroke fill markers"
         d="m 36,-18 c 0,0.03462 0.0025,0.06786 0.0059,0.101562 0.0034,0.0337 0.007,0.067 0.01367,0.09961 0.0066,0.03261 0.01568,0.0663 0.02539,0.09766 0.0097,0.03135 0.02059,0.06187 0.0332,0.0918 0.01262,0.02993 0.02761,0.05759 0.04297,0.08594 0.01536,0.02834 0.03089,0.05739 0.04883,0.08398 0.01794,0.02659 0.03825,0.0515 0.05859,0.07617 0.02035,0.02468 0.04186,0.04772 0.06445,0.07031 0.02259,0.02259 0.04564,0.04411 0.07031,0.06445 0.02468,0.02035 0.04958,0.04066 0.07617,0.05859 0.02659,0.01794 0.05564,0.03347 0.08398,0.04883 0.02834,0.01536 0.05601,0.03035 0.08594,0.04297 0.02993,0.01262 0.06045,0.02349 0.0918,0.0332 0.03135,0.0097 0.06505,0.01875 0.09766,0.02539 0.03261,0.0066 0.06591,0.01027 0.09961,0.01367 C 36.932097,-17.002459 36.965378,-17 37,-17 h 4 c 0.03462,0 0.06786,-0.0025 0.101562,-0.0059 0.0337,-0.0034 0.067,-0.007 0.09961,-0.01367 0.03261,-0.0066 0.0663,-0.01568 0.09766,-0.02539 0.03135,-0.0097 0.06187,-0.02059 0.0918,-0.0332 0.02993,-0.01262 0.05759,-0.02761 0.08594,-0.04297 0.02834,-0.01536 0.05739,-0.03089 0.08398,-0.04883 0.02659,-0.01794 0.0515,-0.03825 0.07617,-0.05859 0.02468,-0.02035 0.04772,-0.04186 0.07031,-0.06445 0.02259,-0.02259 0.04411,-0.04564 0.06445,-0.07031 0.02035,-0.02468 0.04066,-0.04958 0.05859,-0.07617 0.01794,-0.02659 0.03347,-0.05564 0.04883,-0.08398 0.01536,-0.02834 0.03035,-0.05601 0.04297,-0.08594 0.01262,-0.02993 0.02349,-0.06045 0.0332,-0.0918 0.0097,-0.03135 0.01875,-0.06505 0.02539,-0.09766 0.0066,-0.03261 0.01027,-0.06591 0.01367,-0.09961 C 41.997541,-17.932107 42,-17.965378 42,-18 Z"
         sodipodi:nodetypes="cscscssssscssccsssscscssssssssccscc" />
      <path
         id="path5685"
         style="font-variation-settings:'wght' 700;opacity:0.35;fill:#fbfbfb;fill-opacity:1;fill-rule:evenodd;stroke:none;paint-order:stroke fill markers"
         d="m 37,-15 c 0,0.03462 0.0025,0.06786 0.0059,0.101562 0.0034,0.0337 0.007,0.067 0.01367,0.09961 0.0066,0.03261 0.01568,0.0663 0.02539,0.09766 0.0097,0.03135 0.02059,0.06187 0.0332,0.0918 0.01262,0.02993 0.02761,0.05759 0.04297,0.08594 0.01536,0.02834 0.03089,0.05739 0.04883,0.08399 0.01794,0.02659 0.03825,0.0515 0.05859,0.07617 0.02035,0.02468 0.04186,0.04772 0.06445,0.07031 0.02259,0.02259 0.04564,0.04411 0.07031,0.06445 0.02468,0.02035 0.04958,0.04066 0.07617,0.05859 0.02659,0.01794 0.05564,0.03347 0.08398,0.04883 0.02834,0.01536 0.05601,0.03035 0.08594,0.04297 0.02993,0.01262 0.06045,0.02349 0.0918,0.0332 0.03135,0.0097 0.06505,0.01875 0.09766,0.02539 0.03261,0.0066 0.06591,0.01027 0.09961,0.01367 0.0336,0.0034 0.0669,0.0059 0.10153,0.0059 h 2 c 0.03462,0 0.06786,-0.0025 0.101562,-0.0059 0.0337,-0.0034 0.067,-0.007 0.09961,-0.01367 0.03261,-0.0066 0.0663,-0.01568 0.09766,-0.02539 0.03135,-0.0097 0.06187,-0.02059 0.0918,-0.0332 0.02993,-0.01262 0.05759,-0.02761 0.08594,-0.04297 0.02834,-0.01536 0.05739,-0.03089 0.08398,-0.04883 0.02659,-0.01794 0.0515,-0.03825 0.07617,-0.05859 0.02468,-0.02035 0.04772,-0.04186 0.07031,-0.06445 0.02259,-0.02259 0.04411,-0.04564 0.06445,-0.07031 0.02035,-0.02468 0.04066,-0.04958 0.05859,-0.07617 0.01794,-0.02659 0.03347,-0.05565 0.04883,-0.08399 0.01536,-0.02834 0.03035,-0.05601 0.04297,-0.08594 0.01262,-0.02993 0.02349,-0.06045 0.0332,-0.0918 0.0097,-0.03135 0.01875,-0.06505 0.02539,-0.09766 0.0066,-0.03261 0.01027,-0.06591 0.01367,-0.09961 C 40.99756,-14.932101 41,-14.965375 41,-15 Z"
         sodipodi:nodetypes="cscscssssscssccsssscscssssssssccccc" />
    </g>
  </g>
  <g
     id="redshift-status-off"
     transform="translate(0,35)"
     style="opacity:0.5">
    <rect
       style="opacity:0.45;fill:none;stroke-width:0.290909;stroke-linecap:round;stroke-linejoin:round;paint-order:stroke fill markers;stop-color:#000000"
       id="rect7886"
       width="32"
       height="32"
       x="23"
       y="-5"
       rx="0"
       ry="0" />
    <g
       id="g7894"
       transform="translate(0,37)">
      <path
         id="path7888"
         class="ColorScheme-Text"
         d="m 39,-37 c -3.89583,0 -7,3.384303 -7,7.449219 0,2.39275 1.05571,4.536795 2.753906,5.904297 0.337692,0.272804 0.676591,0.551174 0.894532,0.808593 0.218203,0.25773 0.292968,0.441968 0.292968,0.613282 v 0.02344 L 36.046875,-20 h 5.898437 l 0.123047,-2.171875 v -0.0039 c 0.01981,-0.408279 0.524354,-0.942737 1.177735,-1.470703 h 0.002 C 44.945612,-25.014034 46,-27.158574 46,-29.550781 46,-33.615697 42.89583,-37 39,-37 Z m 0,1 c 3.155196,0 6.003906,2.756262 6.003906,6.287109 0,2.085276 -0.908673,3.883934 -2.316406,5.017579 h -0.002 c -1.404825,1.239505 -1.668207,1.627896 -1.758007,3.371093 v 0.0039 L 40.908008,-21 h -3.754661 l -0.01367,-0.316406 c -0.0037,-0.886673 -0.03468,-1.614852 -0.481472,-2.142578 -0.456469,-0.539158 -0.964177,-0.931279 -1.341797,-1.236328 h -0.0039 c -1.407734,-1.133649 -2.316406,-2.932303 -2.316406,-5.017579 C 32.996094,-33.243738 35.844804,-36 39,-36 Z"
         sodipodi:nodetypes="sscsscccccccsssscccccccsccss"
         style="fill:#fbfbfb;fill-opacity:1;stroke:none;stroke-width:0.5;stroke-linecap:round;stroke-linejoin:round;stroke-dasharray:none;stroke-opacity:1" />
      <path
         id="path7890"
         style="font-variation-settings:'wght' 700;opacity:1;fill:#fbfbfb;fill-opacity:1;fill-rule:evenodd;stroke:none;paint-order:stroke fill markers"
         d="m 36,-18 c 0,0.03462 0.0025,0.06786 0.0059,0.101562 0.0034,0.0337 0.007,0.067 0.01367,0.09961 0.0066,0.03261 0.01568,0.0663 0.02539,0.09766 0.0097,0.03135 0.02059,0.06187 0.0332,0.0918 0.01262,0.02993 0.02761,0.05759 0.04297,0.08594 0.01536,0.02834 0.03089,0.05739 0.04883,0.08398 0.01794,0.02659 0.03825,0.0515 0.05859,0.07617 0.02035,0.02468 0.04186,0.04772 0.06445,0.07031 0.02259,0.02259 0.04564,0.04411 0.07031,0.06445 0.02468,0.02035 0.04958,0.04066 0.07617,0.05859 0.02659,0.01794 0.05564,0.03347 0.08398,0.04883 0.02834,0.01536 0.05601,0.03035 0.08594,0.04297 0.02993,0.01262 0.06045,0.02349 0.0918,0.0332 0.03135,0.0097 0.06505,0.01875 0.09766,0.02539 0.03261,0.0066 0.06591,0.01027 0.09961,0.01367 C 36.932097,-17.002459 36.965378,-17 37,-17 h 4 c 0.03462,0 0.06786,-0.0025 0.101562,-0.0059 0.0337,-0.0034 0.067,-0.007 0.09961,-0.01367 0.03261,-0.0066 0.0663,-0.01568 0.09766,-0.02539 0.03135,-0.0097 0.06187,-0.02059 0.0918,-0.0332 0.02993,-0.01262 0.05759,-0.02761 0.08594,-0.04297 0.02834,-0.01536 0.05739,-0.03089 0.08398,-0.04883 0.02659,-0.01794 0.0515,-0.03825 0.07617,-0.05859 0.02468,-0.02035 0.04772,-0.04186 0.07031,-0.06445 0.02259,-0.02259 0.04411,-0.04564 0.06445,-0.07031 0.02035,-0.02468 0.04066,-0.04958 0.05859,-0.07617 0.01794,-0.02659 0.03347,-0.05564 0.04883,-0.08398 0.01536,-0.02834 0.03035,-0.05601 0.04297,-0.08594 0.01262,-0.02993 0.02349,-0.06045 0.0332,-0.0918 0.0097,-0.03135 0.01875,-0.06505 0.02539,-0.09766 0.0066,-0.03261 0.01027,-0.06591 0.01367,-0.09961 C 41.997541,-17.932107 42,-17.965378 42,-18 Z"
         sodipodi:nodetypes="cscscssssscssccsssscscssssssssccscc" />
      <path
         id="path7892"
         style="font-variation-settings:'wght' 700;opacity:1;fill:#fbfbfb;fill-opacity:1;fill-rule:evenodd;stroke:none;paint-order:stroke fill markers"
         d="m 37,-15 c 0,0.03462 0.0025,0.06786 0.0059,0.101562 0.0034,0.0337 0.007,0.067 0.01367,0.09961 0.0066,0.03261 0.01568,0.0663 0.02539,0.09766 0.0097,0.03135 0.02059,0.06187 0.0332,0.0918 0.01262,0.02993 0.02761,0.05759 0.04297,0.08594 0.01536,0.02834 0.03089,0.05739 0.04883,0.08399 0.01794,0.02659 0.03825,0.0515 0.05859,0.07617 0.02035,0.02468 0.04186,0.04772 0.06445,0.07031 0.02259,0.02259 0.04564,0.04411 0.07031,0.06445 0.02468,0.02035 0.04958,0.04066 0.07617,0.05859 0.02659,0.01794 0.05564,0.03347 0.08398,0.04883 0.02834,0.01536 0.05601,0.03035 0.08594,0.04297 0.02993,0.01262 0.06045,0.02349 0.0918,0.0332 0.03135,0.0097 0.06505,0.01875 0.09766,0.02539 0.03261,0.0066 0.06591,0.01027 0.09961,0.01367 0.0336,0.0034 0.0669,0.0059 0.10153,0.0059 h 2 c 0.03462,0 0.06786,-0.0025 0.101562,-0.0059 0.0337,-0.0034 0.067,-0.007 0.09961,-0.01367 0.03261,-0.0066 0.0663,-0.01568 0.09766,-0.02539 0.03135,-0.0097 0.06187,-0.02059 0.0918,-0.0332 0.02993,-0.01262 0.05759,-0.02761 0.08594,-0.04297 0.02834,-0.01536 0.05739,-0.03089 0.08398,-0.04883 0.02659,-0.01794 0.0515,-0.03825 0.07617,-0.05859 0.02468,-0.02035 0.04772,-0.04186 0.07031,-0.06445 0.02259,-0.02259 0.04411,-0.04564 0.06445,-0.07031 0.02035,-0.02468 0.04066,-0.04958 0.05859,-0.07617 0.01794,-0.02659 0.03347,-0.05565 0.04883,-0.08399 0.01536,-0.02834 0.03035,-0.05601 0.04297,-0.08594 0.01262,-0.02993 0.02349,-0.06045 0.0332,-0.0918 0.0097,-0.03135 0.01875,-0.06505 0.02539,-0.09766 0.0066,-0.03261 0.01027,-0.06591 0.01367,-0.09961 C 40.99756,-14.932101 41,-14.965375 41,-15 Z"
         sodipodi:nodetypes="cscscssssscssccsssscscssssssssccccc" />
    </g>
  </g>
</svg>
