<?xml version="1.0" encoding="UTF-8" standalone="no"?>
<svg
   version="1.1"
   id="svg2"
   viewBox="0 0 22 22"
   sodipodi:docname="video-card.svgz"
   inkscape:version="1.4 (e7c3feb100, 2024-10-09)"
   xmlns:inkscape="http://www.inkscape.org/namespaces/inkscape"
   xmlns:sodipodi="http://sodipodi.sourceforge.net/DTD/sodipodi-0.dtd"
   xmlns="http://www.w3.org/2000/svg"
   xmlns:svg="http://www.w3.org/2000/svg"
   xmlns:rdf="http://www.w3.org/1999/02/22-rdf-syntax-ns#"
   xmlns:cc="http://creativecommons.org/ns#"
   xmlns:dc="http://purl.org/dc/elements/1.1/">
  <sodipodi:namedview
     pagecolor="#c8c8c8"
     bordercolor="#666666"
     borderopacity="1"
     objecttolerance="10"
     gridtolerance="10"
     guidetolerance="10"
     inkscape:pageopacity="0"
     inkscape:pageshadow="2"
     inkscape:window-width="1920"
     inkscape:window-height="952"
     id="namedview10"
     showgrid="true"
     inkscape:zoom="30.34131"
     inkscape:cx="9.6897596"
     inkscape:cy="12.161637"
     inkscape:window-x="0"
     inkscape:window-y="34"
     inkscape:window-maximized="1"
     inkscape:current-layer="svg2"
     inkscape:pagecheckerboard="0"
     inkscape:showpageshadow="2"
     inkscape:deskcolor="#d1d1d1">
    <inkscape:grid
       type="xygrid"
       id="grid817"
       originx="0"
       originy="0"
       spacingy="1"
       spacingx="1"
       units="px" />
  </sodipodi:namedview>
  <metadata
     id="metadata12">
    <rdf:RDF>
      <cc:Work
         rdf:about="">
        <dc:format>image/svg+xml</dc:format>
        <dc:type
           rdf:resource="http://purl.org/dc/dcmitype/StillImage" />
        <dc:title />
      </cc:Work>
    </rdf:RDF>
  </metadata>
  <defs
     id="defs3051">
    <style
       type="text/css"
       id="current-color-scheme">
      .ColorScheme-Text {
        color:#31363b;
      }
      </style>
    <style
       type="text/css"
       id="current-color-scheme-3">.ColorScheme-Text {
        color:#7B7C7E;
      }
      .ColorScheme-Background{
        color:#EFF0F1;
      }
      .ColorScheme-Highlight{
        color:#3DAEE6;
      }
      .ColorScheme-ViewText {
        color:#7B7C7E;
      }
      .ColorScheme-ViewBackground{
        color:#FCFCFC;
      }
      .ColorScheme-ViewHover {
        color:#3DAEE6;
      }
      .ColorScheme-ViewFocus{
        color:#1E92FF;
      }
      .ColorScheme-ButtonText {
        color:#7B7C7E;
      }
      .ColorScheme-ButtonBackground{
        color:#EFF0F1;
      }
      .ColorScheme-ButtonHover {
        color:#3DAEE6;
      }
      .ColorScheme-ButtonFocus{
        color:#1E92FF;
      }</style>
    <style
       id="style818"
       type="text/css">.ColorScheme-Text { color:#dedede; } .ColorScheme-Highlight { color:#5294e2; } .ColorScheme-ButtonBackground { color:#dedede; }</style>
    <style
       id="style820"
       type="text/css" />
    <style
       id="style822"
       type="text/css">.ColorScheme-Text {
            color:#232629;
        }
        .ColorScheme-Background {
            color:#eff0f1;
        }
        .ColorScheme-ViewBackground {
            color:#fcfcfc;
        }
        .ColorScheme-ButtonFocus {
            color:#3daee9;
        }
        .ColorScheme-PositiveText {
            color:#27ae60;
        }
        .ColorScheme-NeutralText {
            color:#f67400;
        }
        .ColorScheme-NegativeText {
            color:#da4453;
        }</style>
  </defs>
  <path
     id="path12"
     d="m 40.267625,8.013672 c -0.974614,0.113022 -1.723327,0.916337 -1.767578,1.896484 -6.73e-4,0.02994 -6.73e-4,0.0599 0,0.08984 h 1 C 39.499524,9.49265 39.87901,9.06531 40.382859,9.005855 c 0.03807,-0.0093 0.07813,-0.0092 0.117188,-0.0059 0.507347,-5.23e-4 0.934687,0.394585 0.994141,0.898438 -0.01833,1.179783 -0.896224,1.236706 -1.992188,1.322265 0,0 -0.002,1.690325 -0.002,1.792969 h 1 L 40.500047,12 h 0.002 0.230469 c 0.97452,-0.113022 1.72328,-0.916337 1.767531,-1.896484 -0.01062,-0.105074 -0.0084,-0.195751 -0.01367,-0.320313 C 42.373355,8.808589 41.57004,8.059876 40.589893,8.015625 40.483419,8.014722 40.37715,8.014325 40.267627,8.013625 Z M 39.502,14 v 1 h 1 v -1 z"
     style="fill:#ffc850;fill-opacity:1;stroke:none"
     inkscape:connector-curvature="0" />
  <rect
     style="fill:#ffffff;fill-opacity:1;stroke:none;stroke-width:2;stroke-linecap:round;stroke-linejoin:round;stroke-opacity:1"
     id="rect1633-2"
     width="1"
     height="2"
     x="37.5"
     y="17" />
  <rect
     style="fill:#ffffff;fill-opacity:1;stroke:none;stroke-width:2;stroke-linecap:round;stroke-linejoin:round;stroke-opacity:1"
     id="rect1635-9"
     width="1"
     height="2"
     x="42.5"
     y="17" />
  <rect
     style="fill:#ffffff;fill-opacity:1;stroke:none;stroke-width:2.10819;stroke-linecap:round;stroke-linejoin:round;stroke-opacity:1"
     id="rect1637"
     width="10"
     height="1"
     x="35.5"
     y="19"
     ry="0.5" />
  <path
     id="rect7217"
     style="fill:#ffffff;fill-opacity:1;stroke:none;stroke-width:0.5;stroke-linecap:round;stroke-linejoin:round;stroke-miterlimit:4;stroke-dasharray:none;stroke-opacity:1"
     d="m 34.5,5 c -1.108,0 -2,0.892 -2,2 v 8 c 0,1.108 0.892,2 2,2 h 12 c 1.108,0 2,-0.892 2,-2 V 7 c 0,-1.108 -0.892,-2 -2,-2 z m 0,1 h 12 c 0.554,0 1,0.446 1,1 v 8 c 0,0.554 -0.446,1 -1,1 h -12 c -0.554,0 -1,-0.446 -1,-1 V 7 c 0,-0.554 0.446,-1 1,-1 z"
     sodipodi:nodetypes="ssssssssssssssssss" />
  <g
     id="22-22-video-card-inactive">
    <rect
       style="fill:none;fill-opacity:1;stroke:none"
       id="rect1629"
       width="22"
       height="22"
       x="0"
       y="0" />
    <g
       id="g7"
       transform="translate(0,-40)">
      <path
         id="rect1"
         style="opacity:1;fill:#fbfbfb;stroke-width:0;stroke-linecap:round;stroke-linejoin:round"
         d="m 2.9746094,45 c -1.108,0 -2.00000002,0.892 -2.00000002,2 v 10 c 0,1.108 0.89200002,2 2.00000002,2 H 18.974609 c 1.108,0 2,-0.892 2,-2 V 47 c 0,-1.108 -0.892,-2 -2,-2 z m -0.025391,1 H 19 c 0.554,0 1,0.446 1,1 v 10 c 0,0.554 -0.446,1 -1,1 H 2.9492188 c -0.5540001,0 -1,-0.446 -1,-1 V 47 c 0,-0.554 0.4459999,-1 0.9999996,-1 z"
         sodipodi:nodetypes="ssssssssssssssssss" />
      <rect
         style="opacity:1;fill:#fbfbfb;stroke-width:0;stroke-linecap:round;stroke-linejoin:round"
         id="rect2"
         width="5"
         height="2"
         x="3"
         y="48"
         ry="1" />
      <rect
         style="opacity:1;fill:#fbfbfb;stroke-width:0;stroke-linecap:round;stroke-linejoin:round"
         id="rect3"
         width="9"
         height="1"
         x="3"
         y="52"
         ry="0.5" />
      <rect
         style="opacity:1;fill:#fbfbfb;stroke-width:0;stroke-linecap:round;stroke-linejoin:round"
         id="rect4"
         width="3"
         height="1"
         x="3"
         y="55"
         ry="0.5" />
      <rect
         style="opacity:1;fill:#fbfbfb;stroke-width:0;stroke-linecap:round;stroke-linejoin:round"
         id="rect5"
         width="3"
         height="1"
         x="7"
         y="55"
         ry="0.5" />
      <rect
         style="opacity:1;fill:#fbfbfb;stroke-width:0;stroke-linecap:round;stroke-linejoin:round"
         id="rect6"
         width="3"
         height="1"
         x="11"
         y="55"
         ry="0.5" />
      <rect
         style="opacity:1;fill:#fbfbfb;stroke-width:0;stroke-linecap:round;stroke-linejoin:round"
         id="rect7"
         width="3"
         height="1"
         x="15"
         y="55"
         ry="0.5" />
    </g>
  </g>
</svg>
