<?xml version="1.0" encoding="UTF-8" standalone="no"?>
<svg
   inkscape:version="1.1 (c4e8f9ed74, 2021-05-24)"
   sodipodi:docname="notification.svgz"
   version="1.1"
   viewBox="0 0 22 22"
   id="svg"
   xmlns:inkscape="http://www.inkscape.org/namespaces/inkscape"
   xmlns:sodipodi="http://sodipodi.sourceforge.net/DTD/sodipodi-0.dtd"
   xmlns="http://www.w3.org/2000/svg"
   xmlns:svg="http://www.w3.org/2000/svg"
   xmlns:rdf="http://www.w3.org/1999/02/22-rdf-syntax-ns#"
   xmlns:cc="http://creativecommons.org/ns#"
   xmlns:dc="http://purl.org/dc/elements/1.1/">
  <metadata
     id="metadata40">
    <rdf:RDF>
      <cc:Work
         rdf:about="">
        <dc:format>image/svg+xml</dc:format>
        <dc:type
           rdf:resource="http://purl.org/dc/dcmitype/StillImage" />
        <dc:title />
      </cc:Work>
    </rdf:RDF>
  </metadata>
  <defs
     id="defs38">
    <style
       type="text/css"
       id="current-color-scheme-5">
      .ColorScheme-Text {
        color:#e1e1e1;
      }
      </style>
  </defs>
  <sodipodi:namedview
     inkscape:document-rotation="0"
     inkscape:snap-bbox-edge-midpoints="false"
     inkscape:bbox-nodes="true"
     inkscape:snap-bbox="true"
     inkscape:current-layer="svg"
     inkscape:window-maximized="1"
     inkscape:window-y="0"
     inkscape:window-x="0"
     inkscape:cy="7.7781743"
     inkscape:cx="-52.865218"
     inkscape:zoom="3.7926638"
     showgrid="true"
     id="namedview36"
     inkscape:window-height="998"
     inkscape:window-width="1920"
     inkscape:pageshadow="2"
     inkscape:pageopacity="0"
     guidetolerance="10"
     gridtolerance="10"
     objecttolerance="10"
     borderopacity="1"
     bordercolor="#666666"
     pagecolor="#c8c8c8"
     inkscape:pagecheckerboard="0"
     inkscape:snap-nodes="false"
     inkscape:object-nodes="true"
     inkscape:snap-smooth-nodes="true">
    <inkscape:grid
       id="grid847"
       type="xygrid" />
  </sodipodi:namedview>
  <style
     id="current-color-scheme"
     type="text/css">
        .ColorScheme-Text {
            color:#232629;
        }
        .ColorScheme-ButtonFocus {
            color:#3daee9;
        }
        .ColorScheme-NegativeText {
            color:#da4453;
        }
    </style>
  <path
     style="fill:#ffffff;fill-opacity:1"
     fill="currentColor"
     class="ColorScheme-Text"
     d="m-18 23 2-2 2 2z"
     id="expander-bottom" />
  <path
     style="fill:#ffffff;fill-opacity:1"
     fill="currentColor"
     class="ColorScheme-Text"
     d="m-18 17 2 2 2-2z"
     id="expander-top" />
  <path
     style="fill:#ffffff;fill-opacity:1"
     fill="currentColor"
     class="ColorScheme-Text"
     d="m-13 18-2 2 2 2z"
     id="expander-right" />
  <path
     style="fill:#ffffff;fill-opacity:1"
     fill="currentColor"
     class="ColorScheme-Text"
     d="m-19 18 2 2-2 2z"
     id="expander-left" />
  <g
     id="notification-progress-active">
    <path
       style="fill:none"
       inkscape:connector-curvature="0"
       d="M 40,0 H 62 V 22 H 40 Z"
       id="empty-rectangle" />
    <g
       id="g903"
       transform="translate(-38)">
      <path
         d="m 89,2 a 9,9 0 0 0 -9,9 9,9 0 0 0 9,9 9,9 0 0 0 9,-9 9,9 0 0 0 -9,-9 z m 0,1 a 8,8 0 0 1 8,8 8,8 0 0 1 -8,8 8,8 0 0 1 -8,-8 8,8 0 0 1 8,-8 z"
         style="color:#7b7c7e;fill:#ffffff;fill-opacity:1"
         id="path18" />
      <circle
         cx="89"
         cy="11"
         r="7"
         id="circle20"
         style="color:#7b7c7e;fill:#ffffff;fill-opacity:1;stroke-width:1.16667" />
    </g>
  </g>
  <g
     id="notification-progress-inactive">
    <path
       style="fill:none"
       inkscape:connector-curvature="0"
       d="M 40,40 H 62 V 62 H 40 Z"
       id="path10" />
    <g
       id="g899"
       transform="translate(-38,1)">
      <path
         d="m 89,41 a 9,9 0 0 0 -9,9 9,9 0 0 0 9,9 9,9 0 0 0 9,-9 9,9 0 0 0 -9,-9 z m 0,1 a 8,8 0 0 1 8,8 8,8 0 0 1 -8,8 8,8 0 0 1 -8,-8 8,8 0 0 1 8,-8 z"
         style="color:#7b7c7e;fill:#ffffff;fill-opacity:1"
         id="path25-7" />
      <circle
         cx="89"
         cy="50"
         r="7"
         class="ColorScheme-Text"
         id="circle27"
         style="color:#7b7c7e;opacity:0.15;fill:#ffffff;fill-opacity:1;stroke-width:1.16667" />
    </g>
  </g>
  <g
     id="notification-inactive">
    <rect
       y="0"
       x="0"
       height="22"
       width="22"
       id="rect3028"
       style="fill:#ffffff;fill-opacity:0;stroke:none" />
    <path
       style="color:#000000;fill:#ffffff;-inkscape-stroke:none;fill-opacity:1"
       d="m 10.994199,3 c 3.14894,0 5.74394,2.33488 5.98444,5.3554 l 0.0134,0.22222 0.0045,0.22452 -10e-4,3.59586 0.9254,2.2222 c 0.0226,0.0541 0.0403,0.11 0.053,0.1669 l 0.0152,0.0862 0.0087,0.1313 c 0,0.448 -0.2965,0.8341 -0.7492,0.9631 l -0.1163,0.0268 -0.1345,0.0101 -3.5017,-6e-4 -0.005,0.1613 c -0.0851,1.3037 -1.1694,2.3347 -2.4946,2.3347 -1.3254703,0 -2.4100203,-1.0315 -2.4946703,-2.3356 l -0.0057,-0.1604 -3.50071,6e-4 c -0.08795,0 -0.17533,-0.0116 -0.25989,-0.0344 l -0.12446,-0.0425 c -0.41078,-0.171 -0.65275,-0.5885 -0.60235,-1.052 l 0.02109,-0.1274 0.04242,-0.1281 0.9233,-2.2192 0.0011,-3.60819 0.0043,-0.22457 C 5.1235887,5.45115 7.7676087,3 10.994229,3 Z m 1.50194,13.004 H 9.4961587 l 0.0073,0.1414 c 0.06855,0.7127 0.6357803,1.2796 1.3485903,1.3477 l 0.14444,0.0069 c 0.7797,0 1.4205,-0.5949 1.4931,-1.3555 z M 10.994199,4 C 8.3716487,4 6.2237087,5.92372 6.0136887,8.38498 l -0.01322,0.21225 -0.0039,0.20491 V 12.5 l -0.03841,0.1922 -0.96271,2.3124 11.9577003,0.002 0.0453,-0.0021 -0.9635,-2.3123 -0.0384,-0.1922 10e-5,-3.68759 -0.0041,-0.2041 C 15.887449,6.0349 13.691249,4 10.994209,4 Z"
       id="path865" />
  </g>
  <g
     id="notification-disabled">
    <rect
       y="-40.003906"
       x="0"
       height="22"
       width="22"
       id="rect2941"
       style="fill:#ffffff;fill-opacity:0;stroke:none" />
    <path
       style="color:#000000;fill:#ffffff;-inkscape-stroke:none;fill-opacity:1"
       d="m 5.0044025,-31.43176 c 0.03208,-0.81542 0.2367,-1.58527 0.579161,-2.27759 l -2.437111,-2.4371 c -0.19527,-0.19526 -0.19527,-0.51184 0,-0.7071 0.195261,-0.19527 0.51184,-0.19527 0.7071,0 L 18.853602,-21.8536 c 0.1952,0.1953 0.1952,0.5119 0,0.7072 -0.1953,0.1952 -0.5119,0.1952 -0.7072,0 l -2.8492,-2.8493 -1.7976,-3e-4 -0.005,0.1613 c -0.0851,1.3037 -1.169401,2.3347 -2.4946,2.3347 -1.3254705,0 -2.4100205,-1.0315 -2.4946705,-2.3356 l -0.0057,-0.1604 -3.50071,6e-4 c -0.08795,0 -0.17533,-0.0116 -0.25989,-0.0344 l -0.12446,-0.0425 c -0.41078,-0.171 -0.65275,-0.5885 -0.60235,-1.052 l 0.02109,-0.1274 0.04242,-0.1281 0.9233,-2.2192 0.0011,-3.60819 z m 9.2946005,6.43786 -7.9605705,-7.96058 c -0.17077,0.42055 -0.281239,0.87023 -0.32128,1.33946 l -0.01322,0.21225 -0.0039,0.20491 V -27.5 l -0.03841,0.1922 -0.96271,2.3124 z m -1.7994,0.9979 H 9.4996225 l 0.0074,0.1414 c 0.06855,0.7127 0.6357805,1.2796 1.3485895,1.3477 l 0.144441,0.0069 c 0.779701,0 1.420499,-0.5949 1.4931,-1.3555 z m 3.538799,-3.3118 0.8749,2.0997 0.852,0.8521 c 0.150001,-0.1749 0.236001,-0.3982 0.236001,-0.6394 l -0.0087,-0.1313 -0.0152,-0.0862 c -0.0127,-0.0569 -0.0304,-0.1128 -0.053,-0.1669 l -0.9254,-2.2222 0.001,-3.59586 -0.0045,-0.22452 -0.0134,-0.22222 c -0.2405,-3.02052 -2.8355,-5.3554 -5.98444,-5.3554 -1.6392595,0 -3.1281485,0.63266 -4.2124295,1.66389 l 0.7067,0.70671 C 8.3936935,-35.47778 9.6312625,-36 10.997662,-36 c 2.69704,0 4.89324,2.0349 4.99834,4.60831 l 0.0041,0.2041 -10e-5,3.68759 z"
       id="path878" />
  </g>
  <g
     id="notification-active">
    <rect
       y="40"
       x="0"
       height="22"
       width="22"
       id="rect3731"
       style="fill:#ffffff;fill-opacity:0;stroke:none" />
    <path
       style="color:#000000;fill:#ffffff;-inkscape-stroke:none;fill-opacity:1"
       d="m 14.24555,43.037793 c -0.2354,-0.14429 -0.5433,-0.0704 -0.6876,0.16505 -0.1443,0.23544 -0.0704,0.54328 0.1651,0.68757 2.2574,1.38346 4.1187,3.41326 4.2591,7.0894 0.0105,0.276 0.2427,0.4911 0.5187,0.4806 0.2759,-0.0106 0.4911,-0.2428 0.4805,-0.51873 -0.1565,-4.0983 -2.2776,-6.39739 -4.7358,-7.90389 z m -1.1782,2.65033 c 0.1546,-0.22883 0.4654,-0.28904 0.6942,-0.13448 1.6076,1.0858 2.7153,2.63801 2.8882,4.42447 0.0155,0.16077 0.0234,0.32305 0.0234,0.48661 0,0.27615 -0.2238,0.49999 -0.5,0.49999 -0.2761,0 -0.5,-0.22384 -0.5,-0.49999 0,-0.13129 -0.0063,-0.26143 -0.0188,-0.39029 -0.1371,-1.41701 -1.0246,-2.72763 -2.4525,-3.6921 -0.2288,-0.15457 -0.289,-0.46537 -0.1345,-0.69421 z m -7.0059608,0.71087 c -2.60245,1.15868 -3.77285,4.20768 -2.61416,6.81012 l 1.22391,2.749 0.08907,2.3199 c 0.02035,0.5302 0.56977,0.8722 1.0545,0.6564 l 9.7273408,-4.3309 c 0.4847,-0.2159 0.5982,-0.853 0.2178,-1.2229 l -1.6644,-1.6185 -1.2239,-2.74896 c -1.1587,-2.60244 -4.2077106,-3.77285 -6.8101608,-2.61416 z m -1.70062,6.40342 c -0.93405,-2.09794 0.0095,-4.55583 2.10736,-5.48988 2.0979102,-0.93405 4.5558208,0.0095 5.4898208,2.10736 l 1.3023,2.92492 1.5377,1.4953 -9.0526508,4.0305 -0.08229,-2.1433 z m 7.2992808,6.0339 c -0.6753,0.3007 -1.4547,0.0583 -1.8486102,-0.5393 l 2.6848102,-1.1953 c 0.1805,0.6925 -0.1609,1.434 -0.8362,1.7346 z"
       id="path2298" />
  </g>
  <g
     id="notification-empty">
    <rect
       y="-40"
       x="40"
       height="22"
       width="22"
       id="rect3542"
       style="fill:#ffffff;fill-opacity:0;stroke:none" />
    <path
       style="color:#000000;fill:#ffffff;-inkscape-stroke:none;fill-opacity:1"
       d="m 46.001045,-27.4999 v -3.44554 c 0.0019,-0.01788 0.0029,-0.03605 0.0029,-0.05444 0,-2.76149 2.23863,-5.00012 5.00011,-5.00012 0.4722,0 0.9282,0.06531 1.3601,0.18707 0.2658,0.07494 0.542,-0.07976 0.6169,-0.34554 0.075,-0.26578 -0.0797,-0.54199 -0.3455,-0.61693 -0.5193,-0.14642 -1.0667,-0.2246 -1.6315,-0.2246 -3.294,0 -5.96804,2.6544 -5.99982,5.9409 -0.0021,0.01871 -0.0032,0.03774 -0.0032,0.05702 v 3.40218 l -0.92307,2.2154 c -0.27446,0.6587 0.2095,1.3846 0.92307,1.3846 h 3.49994 c 0,1.3807 1.11929,2.5 2.5,2.5 1.3807,0 2.5,-1.1193 2.5,-2.5 h 3.5001 c 0.7135,0 1.1975,-0.7259 0.923,-1.3846 l -0.923,-2.2154 v -1.40218 c 0,-0.27614 -0.2239,-0.5 -0.5,-0.5 -0.2762,0 -0.5,0.22386 -0.5,0.5 v 1.50218 c 0,0.066 0.013,0.1314 0.0384,0.1923 l 0.9616,2.3077 h -12.00004 l 0.96154,-2.3077 c 0.02539,-0.0609 0.03846,-0.1263 0.03846,-0.1923 z m 3.49994,3.5 h 3 c 0,0.8284 -0.6716,1.5 -1.5,1.5 -0.82843,0 -1.5,-0.6716 -1.5,-1.5 z m 5.4999,-12.99998 h 3.5 c 0.3756,0 0.6069,0.39262 0.4522,0.71404 l -0.0426,0.07269 -2.9493,4.21327 h 2.5397 c 0.2761,0 0.5,0.22386 0.5,0.5 0,0.24546 -0.1769,0.44961 -0.4101,0.49195 l -0.0899,0.0081 h -3.5 c -0.3756,0 -0.6069,-0.39261 -0.4523,-0.71403 l 0.0427,-0.0727 2.9493,-4.21327 h -2.5397 c -0.2761,0 -0.5,-0.22386 -0.5,-0.5 0,-0.24546 0.1769,-0.44961 0.4101,-0.49194 z m -4.49894,4 h 2.50004 c 0.3956,0 0.6237,0.4307 0.4317,0.75291 l -0.0476,0.06718 -1.8166,2.17991 h 1.4325 c 0.2761,0 0.5,0.22386 0.5,0.5 0,0.24546 -0.1769,0.44961 -0.4102,0.49195 l -0.0898,0.008 h -2.50004 c -0.39566,0 -0.62377,-0.43068 -0.43178,-0.75288 l 0.04766,-0.06719 1.81656,-2.17991 h -1.43244 c -0.27615,0 -0.5,-0.22386 -0.5,-0.5 0,-0.24546 0.17687,-0.44961 0.41012,-0.49194 z"
       id="path3556" />
  </g>
</svg>
