<svg xmlns="http://www.w3.org/2000/svg" viewBox="0 0 116 116">
  <defs>
    <linearGradient id="shadowGradientTop" x1="0" y1="0" x2="0" y2="1">
      <stop offset="0" stop-color="#000000" stop-opacity="0"/>
      <stop offset="1" stop-color="#000000" stop-opacity="0.16"/>
    </linearGradient>
    <linearGradient id="shadowGradientBottom" x1="0" y1="0" x2="0" y2="1">
      <stop offset="0" stop-color="#000000" stop-opacity="0.16"/>
      <stop offset="1" stop-color="#000000" stop-opacity="0"/>
    </linearGradient>
    <linearGradient id="shadowGradientLeft" x1="0" y1="0" x2="1" y2="0">
      <stop offset="0" stop-color="#000000" stop-opacity="0"/>
      <stop offset="1" stop-color="#000000" stop-opacity="0.16"/>
    </linearGradient>
    <linearGradient id="shadowGradientRight" x1="0" y1="0" x2="1" y2="0">
      <stop offset="0" stop-color="#000000" stop-opacity="0.16"/>
      <stop offset="1" stop-color="#000000" stop-opacity="0"/>
    </linearGradient>
    <radialGradient id="shadowGradientTL" cx="1" cy="1" r="1">
      <stop offset="0" stop-color="#000000" stop-opacity="0.16"/>
      <stop offset="0.5" stop-color="#000000" stop-opacity="0.16"/>
      <stop offset="1" stop-color="#000000" stop-opacity="0"/>
    </radialGradient>
    <radialGradient id="shadowGradientTR" cx="0" cy="1" r="1">
      <stop offset="0" stop-color="#000000" stop-opacity="0.16"/>
      <stop offset="0.5" stop-color="#000000" stop-opacity="0.16"/>
      <stop offset="1" stop-color="#000000" stop-opacity="0"/>
    </radialGradient>
    <radialGradient id="shadowGradientBL" cx="1" cy="0" r="1">
      <stop offset="0" stop-color="#000000" stop-opacity="0.16"/>
      <stop offset="0.5" stop-color="#000000" stop-opacity="0.16"/>
      <stop offset="1" stop-color="#000000" stop-opacity="0"/>
    </radialGradient>
    <radialGradient id="shadowGradientBR" cx="0" cy="0" r="1">
      <stop offset="0" stop-color="#000000" stop-opacity="0.16"/>
      <stop offset="0.5" stop-color="#000000" stop-opacity="0.16"/>
      <stop offset="1" stop-color="#000000" stop-opacity="0"/>
    </radialGradient>
  </defs>

  <rect id="shadow-hint-left-margin" x="0" y="0" width="8" height="8" opacity="0"/>
  <rect id="shadow-hint-top-margin" x="0" y="0" width="8" height="8" opacity="0"/>
  <rect id="shadow-hint-right-margin" x="108" y="0" width="8" height="8" opacity="0"/>
  <rect id="shadow-hint-bottom-margin" x="0" y="108" width="8" height="8" opacity="0"/>

  <rect id="hint-left-margin" x="8" y="8" width="8" height="8" opacity="0"/>
  <rect id="hint-top-margin" x="8" y="8" width="8" height="8" opacity="0"/>
  <rect id="hint-right-margin" x="100" y="8" width="8" height="8" opacity="0"/>
  <rect id="hint-bottom-margin" x="8" y="100" width="8" height="8" opacity="0"/>

  <rect id="shadow-top" x="16" y="0" width="84" height="8" fill="url(#shadowGradientTop)"/>
  <rect id="shadow-bottom" x="16" y="108" width="84" height="8" fill="url(#shadowGradientBottom)"/>
  <rect id="shadow-left" x="0" y="16" width="8" height="84" fill="url(#shadowGradientLeft)"/>
  <rect id="shadow-right" x="108" y="16" width="8" height="84" fill="url(#shadowGradientRight)"/>

  <rect id="shadow-topleft" x="0" y="0" width="16" height="16" fill="url(#shadowGradientTL)"/>
  <rect id="shadow-topright" x="100" y="0" width="16" height="16" fill="url(#shadowGradientTR)"/>
  <rect id="shadow-bottomleft" x="0" y="100" width="16" height="16" fill="url(#shadowGradientBL)"/>
  <rect id="shadow-bottomright" x="100" y="100" width="16" height="16" fill="url(#shadowGradientBR)"/>

  <path id="topleft" d="M 16,16 L 16,8 A 8,8 0 0 0 8,16 Z" fill="#2C2C2C"/>
  <path id="topright" d="M 100,16 L 100,8 A 8,8 0 0 1 108,16 Z" fill="#2C2C2C"/>
  <path id="bottomleft" d="M 16,100 L 8,100 A 8,8 0 0 0 16,108 Z" fill="#2C2C2C"/>
  <path id="bottomright" d="M 100,100 L 108,100 A 8,8 0 0 1 100,108 Z" fill="#2C2C2C"/>

  <path id="topleft-stroke" d="M 16,8 A 8,8 0 0 0 8,16 L 9,16 A 7,7 0 0 1 16,9 Z" fill="#14FFFFFF"/>
  <path id="topright-stroke" d="M 100,8 A 8,8 0 0 1 108,16 L 107,16 A 7,7 0 0 0 100,9 Z" fill="#14FFFFFF"/>
  <path id="bottomleft-stroke" d="M 8,100 A 8,8 0 0 0 16,108 L 16,107 A 7,7 0 0 1 9,100 Z" fill="#14FFFFFF"/>
  <path id="bottomright-stroke" d="M 108,100 A 8,8 0 0 1 100,108 L 100,107 A 7,7 0 0 0 107,100 Z" fill="#14FFFFFF"/>

  <rect id="top" x="16" y="9" width="84" height="7" fill="#2C2C2C"/>
  <rect id="bottom" x="16" y="100" width="84" height="7" fill="#2C2C2C"/>
  <rect id="left" x="9" y="16" width="7" height="84" fill="#2C2C2C"/>
  <rect id="right" x="100" y="16" width="7" height="84" fill="#2C2C2C"/>

  <rect id="top-stroke" x="16" y="8" width="84" height="1" fill="#14FFFFFF"/>
  <rect id="bottom-stroke" x="16" y="107" width="84" height="1" fill="#14FFFFFF"/>
  <rect id="left-stroke" x="8" y="16" width="1" height="84" fill="#14FFFFFF"/>
  <rect id="right-stroke" x="107" y="16" width="1" height="84" fill="#14FFFFFF"/>

  <rect id="center" x="16" y="16" width="84" height="84" fill="#2C2C2C"/>
</svg>
