<svg xmlns="http://www.w3.org/2000/svg" viewBox="0 0 100 100">
  <g id="hint-stretch-borders">
    <rect width="100" height="100" fill="none"/>
  </g>

  <rect id="hint-left-margin" x="0" y="0" width="8" height="8" opacity="0"/>
  <rect id="hint-top-margin" x="0" y="0" width="8" height="8" opacity="0"/>
  <rect id="hint-right-margin" x="92" y="0" width="8" height="8" opacity="0"/>
  <rect id="hint-bottom-margin" x="0" y="92" width="8" height="8" opacity="0"/>

  <rect id="topleft" x="0" y="0" width="4" height="4" fill="#2C2C2C" rx="0"/>
  <rect id="topright" x="96" y="0" width="4" height="4" fill="#2C2C2C" rx="0"/>
  <rect id="bottomleft" x="0" y="96" width="4" height="4" fill="#2C2C2C" rx="0"/>
  <rect id="bottomright" x="96" y="96" width="4" height="4" fill="#2C2C2C" rx="0"/>

  <rect id="top" x="4" y="0" width="92" height="1" fill="#3F3F3F" rx="0"/>
  <rect id="bottom" x="4" y="99" width="92" height="1" fill="#3F3F3F" rx="0"/>
  <rect id="left" x="0" y="4" width="1" height="92" fill="#3F3F3F" rx="0"/>
  <rect id="right" x="99" y="4" width="1" height="92" fill="#3F3F3F" rx="0"/>

  <rect id="center" x="1" y="1" width="98" height="98" fill="#2C2C2C" rx="0"/>
</svg>
