<svg width="22" height="22" viewBox="0 0 22 22" version="1.1" xmlns="http://www.w3.org/2000/svg">
    <defs>
        <style id="current-color-scheme" type="text/css">
            .ColorScheme-Text { color: #dedede; }
        </style>
    </defs>
    <g class="ColorScheme-Text" fill="currentColor" transform="translate(11, 11) scale(0.9) translate(-11, -11)">
        <path d="m11 7c-2.2032167 0-4 1.7967833-4 4 0 2.203217 1.7967833 4 4 4 2.203217 0 4-1.796783 4-4 0-2.2032167-1.796783-4-4-4zm0 1c1.662777 0 3 1.3372234 3 3 0 1.662777-1.337223 3-3 3-1.6627766 0-3-1.337223-3-3 0-1.6627766 1.3372234-3 3-3z"/>
        <path d="m10.5 3v3h1v-3h-1z"/>
        <path d="m10.5 16v3h1v-3h-1z"/>
        <path d="m3 10.5v1h3v-1h-3z"/>
        <path d="m16 10.5v1h3v-1h-3z"/>
        <path d="m14.707031 14-0.707031 0.707031 2.121094 2.121094 0.707031-0.707031-2.121094-2.121094z"/>
        <path d="M 5.7070312 5 L 5 5.7070312 L 7.1210938 7.828125 L 7.828125 7.1210938 L 5.7070312 5 z"/>
        <path d="M 7.1210938 14 L 5 16.121094 L 5.7070312 16.828125 L 7.828125 14.707031 L 7.1210938 14 z"/>
        <path d="M 16.121094 5 L 14 7.1210938 L 14.707031 7.828125 L 16.828125 5.7070312 L 16.121094 5 z"/>
    </g>
</svg>
