<?xml version="1.0" encoding="UTF-8" standalone="no"?>
<svg xmlns="http://www.w3.org/2000/svg" width="76" height="66" version="1.1" id="svg72">
  <g id="horizontal-slider-handle">
    <rect x="0" y="9" width="24" height="24" opacity="0" />
    <circle cx="12" cy="21" r="7" fill="#FFFFFF" stroke="#D5D5D5" stroke-width="1" />
    <circle cx="12" cy="21" r="4" fill="#0078D4" />
  </g>
  <g id="horizontal-slider-hover">
    <rect x="25" y="9" width="24" height="24" opacity="0" />
    <circle cx="37" cy="21" r="9" fill="#0078D4" opacity=".2" />
    <circle cx="37" cy="21" r="7" fill="#FFFFFF" stroke="#D5D5D5" stroke-width="1" />
    <circle cx="37" cy="21" r="4" fill="#0078D4" />
  </g>
  <g id="horizontal-slider-focus">
    <rect x="50" y="9" width="24" height="24" opacity="0" />
    <circle cx="62" cy="21" r="9" fill="#0078D4" opacity=".3" />
    <circle cx="62" cy="21" r="7" fill="#FFFFFF" stroke="#D5D5D5" stroke-width="1" />
    <circle cx="62" cy="21" r="4" fill="#0078D4" />
  </g>
  <g id="vertical-slider-handle">
    <rect x="0" y="37" width="24" height="24" opacity="0" />
    <circle cx="12" cy="49" r="7" fill="#FFFFFF" stroke="#D5D5D5" stroke-width="1" />
    <circle cx="12" cy="49" r="4" fill="#0078D4" />
  </g>
  <g id="vertical-slider-hover">
    <rect x="25" y="37" width="24" height="24" opacity="0" />
    <circle cx="37" cy="49" r="9" fill="#0078D4" opacity=".2" />
    <circle cx="37" cy="49" r="7" fill="#FFFFFF" stroke="#D5D5D5" stroke-width="1" />
    <circle cx="37" cy="49" r="4" fill="#0078D4" />
  </g>
  <g id="vertical-slider-focus">
    <rect x="50" y="37" width="24" height="24" opacity="0" />
    <circle cx="62" cy="49" r="9" fill="#0078D4" opacity=".3" />
    <circle cx="62" cy="49" r="7" fill="#FFFFFF" stroke="#D5D5D5" stroke-width="1" />
    <circle cx="62" cy="49" r="4" fill="#0078D4" />
  </g>
  <rect id="hint-handle-size" width="22" height="22" x="0" y="0" fill="#ff2a2a" opacity="0" />
  <rect id="hint-tile-center" width="2" height="2" x="-1" y="-24" fill="#4e9a06" opacity="0" />
  <path id="groove-top" class="ColorScheme-Text" d="m 7,-20 v 1 h 1 v -1 z" fill="#8B8B8B" />
  <path id="groove-topleft" class="ColorScheme-Text" d="m 6,-20 c -0.56,0 -1,0.45 -1,1 h 1 z" fill="#8B8B8B" />
  <path id="groove-topright" class="ColorScheme-Text" d="m 10,-19 c 0,-0.52 -0.44,-0.92 -1,-0.92 V -19 Z" fill="#8B8B8B" />
  <path id="groove-bottom" class="ColorScheme-Text" d="m 7,-15 v -1 h 1 v 1 z" fill="#8B8B8B" />
  <path id="groove-bottomleft" class="ColorScheme-Text" d="m 6,-15 c -0.5,0 -0.89,-0.44 -0.89,-1 H 6 Z" fill="#8B8B8B" />
  <path id="groove-bottomright" class="ColorScheme-Text" d="m 10,-16 c 0,0.56 -0.44,1 -1,1 v -1 z" fill="#8B8B8B" />
  <path id="groove-center" class="ColorScheme-Text" d="m 7,-18 v 1 h 1 v -1 z" fill="#8B8B8B" />
  <path id="groove-left" class="ColorScheme-Text" d="m 5,-18 v 1 h 1 v -1 z" fill="#8B8B8B" />
  <path id="groove-right" class="ColorScheme-Text" d="m 9,-18 v 1 h 1 v -1 z" fill="#8B8B8B" />
  <path id="groove-highlight-top" fill="#0078D4" d="m 25,-20 v 1 h 1 v -1 z" />
  <path id="groove-highlight-topleft" fill="#0078D4" d="m 24,-20 c -0.56,0 -1,0.44 -1,1 h 1 z" />
  <path id="groove-highlight-topright" fill="#0078D4" d="m 28,-19 c 0,-0.56 -0.44,-1 -1,-1 v 1 z" />
  <path id="groove-highlight-bottom" fill="#0078D4" d="m 25,-15 v -1 h 1 v 1 z" />
  <path id="groove-highlight-bottomleft" fill="#0078D4" d="m 24,-15 c -0.57,0 -1.02,-0.44 -1.02,-1 H 24 Z" />
  <path id="groove-highlight-bottomright" fill="#0078D4" d="m 28.04,-16 c 0,0.56 -0.46,1 -1.04,1 v -1 z" />
  <path id="groove-highlight-center" fill="#0078D4" d="m 25,-18 v 1 h 1 v -1 z" />
  <path id="groove-highlight-left" fill="#0078D4" d="m 23,-18 v 1 h 1 v -1 z" />
  <path id="groove-highlight-right" fill="#0078D4" d="m 27,-18 v 1 h 1 v -1 z" />
</svg>
