<svg xmlns="http://www.w3.org/2000/svg" viewBox="0 0 108 108">
  <defs>
    <linearGradient id="shadowGradientTop" x1="0" y1="0" x2="0" y2="1">
      <stop offset="0" stop-color="#000000" stop-opacity="0"/>
      <stop offset="1" stop-color="#000000" stop-opacity="0.12"/>
    </linearGradient>
    <linearGradient id="shadowGradientBottom" x1="0" y1="0" x2="0" y2="1">
      <stop offset="0" stop-color="#000000" stop-opacity="0.12"/>
      <stop offset="1" stop-color="#000000" stop-opacity="0"/>
    </linearGradient>
    <linearGradient id="shadowGradientLeft" x1="0" y1="0" x2="1" y2="0">
      <stop offset="0" stop-color="#000000" stop-opacity="0"/>
      <stop offset="1" stop-color="#000000" stop-opacity="0.12"/>
    </linearGradient>
    <linearGradient id="shadowGradientRight" x1="0" y1="0" x2="1" y2="0">
      <stop offset="0" stop-color="#000000" stop-opacity="0.12"/>
      <stop offset="1" stop-color="#000000" stop-opacity="0"/>
    </linearGradient>
    <radialGradient id="shadowGradientTL" cx="1" cy="1" r="1">
      <stop offset="0" stop-color="#000000" stop-opacity="0.12"/>
      <stop offset="1" stop-color="#000000" stop-opacity="0"/>
    </radialGradient>
    <radialGradient id="shadowGradientTR" cx="0" cy="1" r="1">
      <stop offset="0" stop-color="#000000" stop-opacity="0.12"/>
      <stop offset="1" stop-color="#000000" stop-opacity="0"/>
    </radialGradient>
    <radialGradient id="shadowGradientBL" cx="1" cy="0" r="1">
      <stop offset="0" stop-color="#000000" stop-opacity="0.12"/>
      <stop offset="1" stop-color="#000000" stop-opacity="0"/>
    </radialGradient>
    <radialGradient id="shadowGradientBR" cx="0" cy="0" r="1">
      <stop offset="0" stop-color="#000000" stop-opacity="0.12"/>
      <stop offset="1" stop-color="#000000" stop-opacity="0"/>
    </radialGradient>
  </defs>

  <rect id="shadow-hint-left-margin" x="0" y="0" width="4" height="4" opacity="0"/>
  <rect id="shadow-hint-top-margin" x="0" y="0" width="4" height="4" opacity="0"/>
  <rect id="shadow-hint-right-margin" x="104" y="0" width="4" height="4" opacity="0"/>
  <rect id="shadow-hint-bottom-margin" x="0" y="104" width="4" height="4" opacity="0"/>

  <rect id="hint-left-margin" x="4" y="4" width="8" height="8" opacity="0"/>
  <rect id="hint-top-margin" x="4" y="4" width="8" height="8" opacity="0"/>
  <rect id="hint-right-margin" x="96" y="4" width="8" height="8" opacity="0"/>
  <rect id="hint-bottom-margin" x="4" y="96" width="8" height="8" opacity="0"/>

  <rect id="shadow-top" x="4" y="0" width="100" height="4" fill="url(#shadowGradientTop)"/>
  <rect id="shadow-bottom" x="4" y="104" width="100" height="4" fill="url(#shadowGradientBottom)"/>
  <rect id="shadow-left" x="0" y="4" width="4" height="100" fill="url(#shadowGradientLeft)"/>
  <rect id="shadow-right" x="104" y="4" width="4" height="100" fill="url(#shadowGradientRight)"/>

  <rect id="shadow-topleft" x="0" y="0" width="4" height="4" fill="url(#shadowGradientTL)"/>
  <rect id="shadow-topright" x="104" y="0" width="4" height="4" fill="url(#shadowGradientTR)"/>
  <rect id="shadow-bottomleft" x="0" y="104" width="4" height="4" fill="url(#shadowGradientBL)"/>
  <rect id="shadow-bottomright" x="104" y="104" width="4" height="4" fill="url(#shadowGradientBR)"/>

  <path id="topleft" d="M 8,8 L 8,4 A 4,4 0 0 0 4,8 Z" fill="#2C2C2C"/>
  <path id="topright" d="M 100,8 L 100,4 A 4,4 0 0 1 104,8 Z" fill="#2C2C2C"/>
  <path id="bottomleft" d="M 8,100 L 4,100 A 4,4 0 0 0 8,104 Z" fill="#2C2C2C"/>
  <path id="bottomright" d="M 100,100 L 104,100 A 4,4 0 0 1 100,104 Z" fill="#2C2C2C"/>

  <path id="topleft-stroke" d="M 8,4 A 4,4 0 0 0 4,8 L 5,8 A 3,3 0 0 1 8,5 Z" fill="#14FFFFFF"/>
  <path id="topright-stroke" d="M 100,4 A 4,4 0 0 1 104,8 L 103,8 A 3,3 0 0 0 100,5 Z" fill="#14FFFFFF"/>
  <path id="bottomleft-stroke" d="M 4,100 A 4,4 0 0 0 8,104 L 8,103 A 3,3 0 0 1 5,100 Z" fill="#14FFFFFF"/>
  <path id="bottomright-stroke" d="M 104,100 A 4,4 0 0 1 100,104 L 100,103 A 3,3 0 0 0 103,100 Z" fill="#14FFFFFF"/>

  <rect id="top" x="8" y="5" width="92" height="3" fill="#2C2C2C"/>
  <rect id="bottom" x="8" y="100" width="92" height="3" fill="#2C2C2C"/>
  <rect id="left" x="5" y="8" width="3" height="92" fill="#2C2C2C"/>
  <rect id="right" x="100" y="8" width="3" height="92" fill="#2C2C2C"/>

  <rect id="top-stroke" x="8" y="4" width="92" height="1" fill="#14FFFFFF"/>
  <rect id="bottom-stroke" x="8" y="103" width="92" height="1" fill="#14FFFFFF"/>
  <rect id="left-stroke" x="4" y="8" width="1" height="92" fill="#14FFFFFF"/>
  <rect id="right-stroke" x="103" y="8" width="1" height="92" fill="#14FFFFFF"/>

  <rect id="center" x="8" y="8" width="92" height="92" fill="#2C2C2C"/>
</svg>
